# xmcd
#
# Track frame offsets:
#	150
#	26393
#	47314
#	69185
#	100616
#	129986
#	153777
#	186562
#	213454
#	242392
#	277634
#	298409
#
# Disc length: 4079 seconds
#
# Revision: 0
# Processed by: cddbd v1.5.1PL2 Copyright (c) Steve Scherf et al.
# Submitted via: EasyCDDAExtractor 9.0.0.1
#
DISCID=970fed0c
DTITLE=Various Artist - TECHNO 48
DYEAR=2006
DGENRE=Techno
TTITLE0=SCOOTER - APACHE ROCKS THE BOTTOM(EXTENTED MIX)
TTITLE1=IRIS - APPETITE(CLUB MIX 2006)
TTITLE2=TEAM X  - PUMP IT(GIMMI GIMMI GIMMI)
TTITLE3=RON VAN DEN BEUKEN PRES CLOX - TIBET(VOCAL CLUB)
TTITLE4=MINIMAL CHIC FT MATT GOSS - WITH OR WITHOUT YOU(ANTILLAS REMIX)
TTITLE5=TOBASSCO VS SPREAD'N'LICK - ROCK DA GEE(EXTENTED MIX)
TTITLE6=SUNPORT - FOLLOW ME(VANDEX REMIX)
TTITLE7=THE REAL BOOTY BABES - SINCE U BEEN GONE(CLUB MIX)
TTITLE8=VAN HELSING and VAN GIESSEN - ENJOY THE SILENCE(CLUB MIX)
TTITLE9=S and G TEAM - 2BE CONNECTED(EXTENTED MIX)
TTITLE10=MEYSON - REVOLUTION LIGHTS(2006 REMIX)
TTITLE11=SCOOTER - COUNTDOWN(DJ TOOL)
EXTD=
EXTT0=
EXTT1=
EXTT2=
EXTT3=
EXTT4=
EXTT5=
EXTT6=
EXTT7=
EXTT8=
EXTT9=
EXTT10=
EXTT11=
PLAYORDER=
